Lynch.S02E08.1280x1080i.HDTV.h264.THoRCuATo.mkv
Format                           : Matroska
File size                        : 1.47 GiB
Duration                         : 44mn 8s
Overall bit rate                 : 4 772 Kbps
Encoded date                     : UTC 2013-06-19 04:40:57
Writing application              : mkvmerge v6.1.0 ('Old Devil') built on Mar  2 2013 14:32:37
Writing library                  : libebml v1.3.0 + libmatroska v1.4.0

Video
ID                               : 1
Format                           : AVC
Format/Info                      : Advanced Video Codec
Format profile                   : Main@L4.0
Format settings, CABAC           : Yes
Format settings, ReFrames        : 4 frames
Muxing mode                      : Container profile=Unknown@4.0
Codec ID                         : V_MPEG4/ISO/AVC
Duration                         : 44mn 8s
Bit rate                         : 4 549 Kbps
Width                            : 1 280 pixels
Height                           : 1 080 pixels
Display aspect ratio             : 16:9
Frame rate                       : 29.970 fps
Color space                      : YUV
Chroma subsampling               : 4:2:0
Bit depth                        : 8 bits
Scan type                        : MBAFF
Bits/(Pixel*Frame)               : 0.110
Stream size                      : 1.40 GiB (95%)

Audio
ID                               : 2
Format                           : MPEG Audio
Format version                   : Version 1
Format profile                   : Layer 2
Codec ID                         : A_MPEG/L2
Codec ID/Hint                    : MP2
Duration                         : 44mn 8s
Bit rate mode                    : Constant
Bit rate                         : 128 Kbps
Channel(s)                       : 2 channels
Sampling rate                    : 48.0 KHz
Video delay                      : 30ms
Stream size                      : 40.4 MiB (3%)